<svg width="21" height="12" viewBox="0 0 21 12" fill="none" xmlns="http://www.w3.org/2000/svg">
<path d="M0.75 4.77296C0.335786 4.77296 0 5.10875 0 5.52296C0 5.93718 0.335786 6.27296 0.75 6.27296V5.52296V4.77296ZM20.782 6.05329C21.0749 5.7604 21.0749 5.28553 20.782 4.99263L16.0091 0.219664C15.7162 -0.0732298 15.2413 -0.0732298 14.9484 0.219664C14.6555 0.512557 14.6555 0.987431 14.9484 1.28032L19.191 5.52296L14.9484 9.7656C14.6555 10.0585 14.6555 10.5334 14.9484 10.8263C15.2413 11.1192 15.7162 11.1192 16.0091 10.8263L20.782 6.05329ZM0.75 5.52296V6.27296H20.2517V5.52296V4.77296H0.75V5.52296Z" fill="black"/>
</svg>
