<svg width="26" height="8" viewBox="0 0 26 8" fill="none" xmlns="http://www.w3.org/2000/svg">
<path d="M0.5 3.18188C0.223858 3.18188 0 3.40574 0 3.68188C0 3.95803 0.223858 4.18188 0.5 4.18188V3.68188V3.18188ZM25.8536 4.03544C26.0488 3.84018 26.0488 3.52359 25.8536 3.32833L22.6716 0.146351C22.4763 -0.0489113 22.1597 -0.0489113 21.9645 0.146351C21.7692 0.341613 21.7692 0.658195 21.9645 0.853458L24.7929 3.68188L21.9645 6.51031C21.7692 6.70557 21.7692 7.02216 21.9645 7.21742C22.1597 7.41268 22.4763 7.41268 22.6716 7.21742L25.8536 4.03544ZM0.5 3.68188V4.18188H25.5V3.68188V3.18188H0.5V3.68188Z" fill="black"/>
</svg>
