<svg width="26" height="8" viewBox="0 0 26 8" fill="none" xmlns="http://www.w3.org/2000/svg">
<path d="M25.5 3.18188C25.7761 3.18188 26 3.40574 26 3.68188C26 3.95803 25.7761 4.18188 25.5 4.18188V3.68188V3.18188ZM0.146446 4.03544C-0.0488148 3.84018 -0.0488148 3.52359 0.146446 3.32833L3.32843 0.146351C3.52369 -0.0489113 3.84027 -0.0489113 4.03553 0.146351C4.2308 0.341613 4.2308 0.658195 4.03553 0.853458L1.20711 3.68188L4.03553 6.51031C4.2308 6.70557 4.2308 7.02216 4.03553 7.21742C3.84027 7.41268 3.52369 7.41268 3.32843 7.21742L0.146446 4.03544ZM25.5 3.68188V4.18188H0.5V3.68188V3.18188H25.5V3.68188Z" fill="black"/>
</svg>
