<svg width="199" height="47" viewBox="0 0 199 47" fill="none" xmlns="http://www.w3.org/2000/svg">
<g clip-path="url(#clip0_18_134)">
<line x1="183.467" y1="23.4922" x2="162.471" y2="23.4922" stroke="white" stroke-linecap="round"/>
<circle cx="160.977" cy="23.5001" r="2.7149" transform="rotate(90 160.977 23.5001)" fill="white"/>
<circle cx="182.52" cy="23.5001" r="1.44684" transform="rotate(90 182.52 23.5001)" fill="white"/>
<path d="M51.204 23.7C51.42 22.464 51.882 21.36 52.59 20.388C53.298 19.404 54.168 18.642 55.2 18.102C56.244 17.55 57.342 17.274 58.494 17.274C59.886 17.274 61.026 17.61 61.914 18.282C62.814 18.942 63.384 19.878 63.624 21.09H62.148C61.932 20.25 61.494 19.596 60.834 19.128C60.186 18.648 59.34 18.408 58.296 18.408C57.372 18.408 56.502 18.624 55.686 19.056C54.882 19.488 54.198 20.106 53.634 20.91C53.07 21.714 52.692 22.644 52.5 23.7C52.428 24.108 52.392 24.504 52.392 24.888C52.392 25.716 52.56 26.442 52.896 27.066C53.232 27.678 53.706 28.152 54.318 28.488C54.93 28.812 55.632 28.974 56.424 28.974C57.468 28.974 58.398 28.74 59.214 28.272C60.042 27.804 60.708 27.156 61.212 26.328H62.706C62.022 27.528 61.116 28.458 59.988 29.118C58.872 29.778 57.618 30.108 56.226 30.108C55.206 30.108 54.306 29.898 53.526 29.478C52.758 29.046 52.158 28.446 51.726 27.678C51.294 26.91 51.078 26.022 51.078 25.014C51.078 24.666 51.12 24.228 51.204 23.7ZM68.8707 30.144C68.0547 30.144 67.3347 29.982 66.7107 29.658C66.0867 29.322 65.6007 28.854 65.2527 28.254C64.9167 27.642 64.7487 26.928 64.7487 26.112C64.7487 25.008 65.0007 23.994 65.5047 23.07C66.0087 22.134 66.7107 21.396 67.6107 20.856C68.5107 20.304 69.5127 20.028 70.6167 20.028C71.4327 20.028 72.1527 20.196 72.7767 20.532C73.4007 20.856 73.8867 21.324 74.2347 21.936C74.5827 22.536 74.7567 23.244 74.7567 24.06C74.7567 25.176 74.4987 26.196 73.9827 27.12C73.4667 28.044 72.7587 28.782 71.8587 29.334C70.9707 29.874 69.9747 30.144 68.8707 30.144ZM69.0147 29.082C69.8667 29.082 70.6287 28.854 71.3007 28.398C71.9847 27.942 72.5127 27.336 72.8847 26.58C73.2687 25.824 73.4607 25.008 73.4607 24.132C73.4607 23.148 73.1727 22.398 72.5967 21.882C72.0327 21.366 71.3127 21.108 70.4367 21.108C69.5847 21.108 68.8227 21.336 68.1507 21.792C67.4907 22.248 66.9747 22.854 66.6027 23.61C66.2307 24.366 66.0447 25.182 66.0447 26.058C66.0447 27.03 66.3267 27.78 66.8907 28.308C67.4547 28.824 68.1627 29.082 69.0147 29.082ZM82.4895 19.992C83.4975 19.992 84.3015 20.268 84.9015 20.82C85.5135 21.36 85.8195 22.152 85.8195 23.196C85.8195 23.58 85.7895 23.928 85.7295 24.24L84.7035 30H83.4615L84.4515 24.384C84.4995 24.108 84.5235 23.814 84.5235 23.502C84.5235 22.71 84.3075 22.11 83.8755 21.702C83.4435 21.294 82.8375 21.09 82.0575 21.09C81.1095 21.09 80.2995 21.39 79.6275 21.99C78.9555 22.59 78.5175 23.472 78.3135 24.636V24.582L77.3595 30H76.0995L77.8275 20.172H79.0875L78.7815 21.864C79.2015 21.264 79.7355 20.802 80.3835 20.478C81.0315 20.154 81.7335 19.992 82.4895 19.992ZM89.5781 27.336C89.5421 27.552 89.5241 27.738 89.5241 27.894C89.5241 28.278 89.6261 28.548 89.8301 28.704C90.0461 28.848 90.3941 28.92 90.8741 28.92H92.0261L91.8281 30H90.4781C89.7341 30 89.1761 29.856 88.8041 29.568C88.4321 29.28 88.2461 28.806 88.2461 28.146C88.2461 27.882 88.2701 27.612 88.3181 27.336L89.3981 21.234H88.0301L88.2281 20.172H89.5961L90.0281 17.706H91.2881L90.8561 20.172H93.5741L93.3761 21.234H90.6581L89.5781 27.336ZM94.1942 25.068C94.3742 24.06 94.7342 23.178 95.2742 22.422C95.8142 21.654 96.4742 21.066 97.2542 20.658C98.0462 20.238 98.8922 20.028 99.7922 20.028C100.728 20.028 101.496 20.244 102.096 20.676C102.696 21.108 103.086 21.66 103.266 22.332L103.644 20.172H104.904L103.176 30H101.916L102.294 27.822C101.886 28.494 101.298 29.052 100.53 29.496C99.7742 29.928 98.9282 30.144 97.9922 30.144C97.2122 30.144 96.5282 29.982 95.9402 29.658C95.3522 29.334 94.8962 28.878 94.5722 28.29C94.2482 27.69 94.0862 26.988 94.0862 26.184C94.0862 25.836 94.1222 25.464 94.1942 25.068ZM102.78 25.086C102.84 24.75 102.87 24.45 102.87 24.186C102.87 23.25 102.588 22.506 102.024 21.954C101.46 21.402 100.728 21.126 99.8282 21.126C99.1322 21.126 98.4782 21.282 97.8662 21.594C97.2662 21.906 96.7562 22.362 96.3362 22.962C95.9162 23.55 95.6342 24.252 95.4902 25.068C95.4302 25.428 95.4002 25.734 95.4002 25.986C95.4002 26.934 95.6762 27.684 96.2282 28.236C96.7922 28.776 97.5242 29.046 98.4242 29.046C99.0962 29.046 99.7382 28.884 100.35 28.56C100.974 28.236 101.496 27.774 101.916 27.174C102.348 26.574 102.636 25.878 102.78 25.086ZM106.341 25.086C106.521 24.066 106.881 23.178 107.421 22.422C107.973 21.654 108.645 21.066 109.437 20.658C110.229 20.238 111.087 20.028 112.011 20.028C113.223 20.028 114.165 20.328 114.837 20.928C115.521 21.528 115.887 22.344 115.935 23.376H114.585C114.549 22.668 114.285 22.116 113.793 21.72C113.313 21.312 112.659 21.108 111.831 21.108C110.811 21.108 109.911 21.456 109.131 22.152C108.363 22.836 107.865 23.814 107.637 25.086C107.577 25.386 107.547 25.728 107.547 26.112C107.547 27.072 107.805 27.81 108.321 28.326C108.849 28.83 109.545 29.082 110.409 29.082C111.249 29.082 111.981 28.884 112.605 28.488C113.229 28.08 113.691 27.516 113.991 26.796H115.341C114.933 27.804 114.279 28.614 113.379 29.226C112.479 29.838 111.429 30.144 110.229 30.144C109.017 30.144 108.045 29.796 107.313 29.1C106.593 28.404 106.233 27.45 106.233 26.238C106.233 25.866 106.269 25.482 106.341 25.086ZM119.18 27.336C119.144 27.552 119.126 27.738 119.126 27.894C119.126 28.278 119.228 28.548 119.432 28.704C119.648 28.848 119.996 28.92 120.476 28.92H121.628L121.43 30H120.08C119.336 30 118.778 29.856 118.406 29.568C118.034 29.28 117.848 28.806 117.848 28.146C117.848 27.882 117.872 27.612 117.92 27.336L119 21.234H117.632L117.83 20.172H119.198L119.63 17.706H120.89L120.458 20.172H123.176L122.978 21.234H120.26L119.18 27.336ZM139.058 20.172L137.33 30H136.07L136.376 28.272C135.968 28.884 135.44 29.352 134.792 29.676C134.144 30 133.448 30.162 132.704 30.162C131.696 30.162 130.886 29.892 130.274 29.352C129.662 28.8 129.356 28.002 129.356 26.958C129.356 26.574 129.386 26.226 129.446 25.914L130.454 20.172H131.696L130.706 25.77C130.658 26.046 130.634 26.334 130.634 26.634C130.634 27.426 130.85 28.032 131.282 28.452C131.726 28.86 132.338 29.064 133.118 29.064C134.03 29.064 134.816 28.788 135.476 28.236C136.136 27.672 136.58 26.85 136.808 25.77L137.798 20.172H139.058ZM143.483 30.144C142.487 30.144 141.677 29.916 141.053 29.46C140.429 28.992 140.117 28.356 140.117 27.552C140.117 27.408 140.123 27.3 140.135 27.228H141.359C141.311 27.804 141.479 28.266 141.863 28.614C142.247 28.962 142.811 29.136 143.555 29.136C144.311 29.136 144.917 28.98 145.373 28.668C145.829 28.344 146.057 27.918 146.057 27.39C146.057 27.078 145.961 26.814 145.769 26.598C145.577 26.382 145.337 26.208 145.049 26.076C144.773 25.932 144.383 25.77 143.879 25.59C143.255 25.362 142.751 25.152 142.367 24.96C141.995 24.756 141.671 24.48 141.395 24.132C141.131 23.772 140.999 23.322 140.999 22.782C140.999 22.242 141.155 21.762 141.467 21.342C141.779 20.922 142.205 20.598 142.745 20.37C143.297 20.142 143.921 20.028 144.617 20.028C145.589 20.028 146.381 20.268 146.993 20.748C147.617 21.228 147.929 21.864 147.929 22.656C147.929 22.824 147.923 22.95 147.911 23.034H146.723C146.735 22.986 146.741 22.908 146.741 22.8C146.741 22.272 146.531 21.846 146.111 21.522C145.703 21.198 145.175 21.036 144.527 21.036C143.879 21.036 143.339 21.192 142.907 21.504C142.487 21.804 142.277 22.212 142.277 22.728C142.277 23.076 142.379 23.37 142.583 23.61C142.787 23.838 143.039 24.024 143.339 24.168C143.639 24.312 144.041 24.48 144.545 24.672C145.145 24.9 145.625 25.11 145.985 25.302C146.357 25.494 146.669 25.758 146.921 26.094C147.173 26.43 147.299 26.85 147.299 27.354C147.299 28.206 146.945 28.884 146.237 29.388C145.529 29.892 144.611 30.144 143.483 30.144Z" fill="white"/>
<line x1="0.5" y1="-0.5" x2="21.4955" y2="-0.5" transform="matrix(1 -8.74228e-08 -8.74228e-08 -1 15 22.9922)" stroke="white" stroke-linecap="round"/>
<circle cx="2.7149" cy="2.7149" r="2.7149" transform="matrix(4.37114e-08 1 1 -4.37114e-08 35.2745 20.7852)" fill="white"/>
<circle cx="1.44684" cy="1.44684" r="1.44684" transform="matrix(4.37114e-08 1 1 -4.37114e-08 15 22.0532)" fill="white"/>
</g>
<rect x="198.467" y="0.500009" width="46" height="197.967" rx="23" transform="rotate(90 198.467 0.500009)" stroke="white"/>
<defs>
<clipPath id="clip0_18_134">
<rect x="198.967" y="8.69711e-06" width="47" height="198.967" rx="23.5" transform="rotate(90 198.967 8.69711e-06)" fill="white"/>
</clipPath>
</defs>
</svg>
