<svg width="20" height="20" viewBox="0 0 19 19" fill="none" xmlns="http://www.w3.org/2000/svg">
<path d="M14.0372 4.47997C13.9425 4.47997 13.8516 4.44234 13.7847 4.37537C13.7177 4.30839 13.6801 4.21755 13.6801 4.12283C13.6801 4.02811 13.7177 3.93727 13.7847 3.87029C13.8516 3.80331 13.9425 3.76569 14.0372 3.76569M14.0372 4.47997C14.1319 4.47997 14.2228 4.44234 14.2897 4.37537C14.3567 4.30839 14.3943 4.21755 14.3943 4.12283C14.3943 4.02811 14.3567 3.93727 14.2897 3.87029C14.2228 3.80331 14.1319 3.76569 14.0372 3.76569" stroke="white" stroke-linecap="round" stroke-linejoin="round"/>
<path d="M0.501429 4.17571C0.501429 3.20085 0.88869 2.26592 1.57802 1.57659C2.26735 0.887262 3.20228 0.5 4.17714 0.5H13.98C14.4627 0.5 14.9407 0.595075 15.3866 0.779797C15.8326 0.964519 16.2378 1.23527 16.5791 1.57659C16.9204 1.91791 17.1912 2.32312 17.3759 2.76908C17.5606 3.21504 17.6557 3.69301 17.6557 4.17571V13.9786C17.6557 14.9534 17.2685 15.8884 16.5791 16.5777C15.8898 17.267 14.9549 17.6543 13.98 17.6543H4.17571C3.20085 17.6543 2.26592 17.267 1.57659 16.5777C0.887262 15.8884 0.5 14.9534 0.5 13.9786L0.501429 4.17571Z" stroke="white" stroke-linecap="round" stroke-linejoin="round"/>
<path d="M5.43567 9.07712C5.43567 9.55551 5.52989 10.0292 5.71297 10.4712C5.89604 10.9132 6.16437 11.3147 6.50264 11.653C6.84091 11.9913 7.24249 12.2596 7.68447 12.4427C8.12644 12.6258 8.60014 12.72 9.07853 12.72C9.55691 12.72 10.0306 12.6258 10.4726 12.4427C10.9146 12.2596 11.3161 11.9913 11.6544 11.653C11.9927 11.3147 12.261 10.9132 12.4441 10.4712C12.6272 10.0292 12.7214 9.55551 12.7214 9.07712C12.7214 8.11098 12.3376 7.1844 11.6544 6.50123C10.9712 5.81807 10.0447 5.43427 9.07853 5.43427C8.11238 5.43427 7.18581 5.81807 6.50264 6.50123C5.81947 7.1844 5.43567 8.11098 5.43567 9.07712Z" stroke="white" stroke-linecap="round" stroke-linejoin="round"/>
</svg>
